<svg xmlns="http://www.w3.org/2000/svg" viewBox="0 0 50 50" width="50" height="50">
  <path d="M 24 5 L 24 10 L 20 10 L 20 12 L 24 12 L 24 18 L 22 18 C 20 18 20 20 20 20 L 16 28 C 16 28 14 28 14 30 C 14 32 16 32 16 32 L 34 32 C 34 32 36 32 36 30 C 36 28 34 28 34 28 L 30 20 C 30 20 30 18 28 18 L 26 18 L 26 12 L 30 12 L 30 10 L 26 10 L 26 5 Z M 14 34 L 36 34 L 36 37 L 14 37 Z M 12 39 L 38 39 L 38 42 L 12 42 Z M 10 44 L 40 44 L 40 46 L 10 46 Z" fill="white" stroke="black" stroke-width="2"/>
</svg>
